<svg width="480" height="476" viewBox="0 0 480 476" fill="none" xmlns="http://www.w3.org/2000/svg">
<g clip-path="url(#clip0_716_26106)">
<path d="M5.31104 237.677C5.31104 300.713 30.3083 361.168 74.8036 405.741C119.299 450.314 179.648 475.355 242.573 475.355C305.499 475.355 365.848 450.314 410.343 405.741C454.839 361.168 479.836 300.713 479.836 237.677C479.836 174.641 454.839 114.187 410.343 69.6141C365.848 25.0409 305.499 0 242.573 0C179.648 0 119.299 25.0409 74.8036 69.6141C30.3083 114.187 5.31104 174.641 5.31104 237.677Z" fill="#FFEEF1"/>
<path d="M337.158 185.389H41.992C38.8457 185.389 35.8283 186.641 33.6035 188.87C31.3788 191.098 30.1289 194.121 30.1289 197.273V388.193H349.021V197.273C349.021 194.121 347.772 191.098 345.547 188.87C343.322 186.641 340.305 185.389 337.158 185.389Z" fill="white" stroke="#2E3238" stroke-width="1.75" stroke-linecap="round" stroke-linejoin="round"/>
<path d="M326.511 207.937H52.9535L52.6392 388.192H326.511V207.937Z" fill="#FF5971"/>
<path d="M326.511 207.937H52.9535L52.6392 388.192H326.511V207.937Z" stroke="#2E3238" stroke-width="1.75" stroke-linecap="round" stroke-linejoin="round"/>
<path d="M39.5063 431.658C39.5063 434.259 55.3171 436.752 83.4604 438.591C111.604 440.43 149.774 441.463 189.575 441.463C229.375 441.463 267.546 440.43 295.689 438.591C323.833 436.752 339.643 434.259 339.643 431.658C339.643 429.058 323.833 426.564 295.689 424.726C267.546 422.887 229.375 421.854 189.575 421.854C149.774 421.854 111.604 422.887 83.4604 424.726C55.3171 426.564 39.5063 429.058 39.5063 431.658Z" fill="#FF5971"/>
<path d="M377.161 410.742H1.98975V394.105C1.98975 392.529 2.61468 391.018 3.72706 389.903C4.83944 388.789 6.34816 388.163 7.92131 388.163H371.229C372.802 388.163 374.311 388.789 375.424 389.903C376.536 391.018 377.161 392.529 377.161 394.105V410.742Z" fill="white" stroke="#2E3238" stroke-width="1.75" stroke-linecap="round" stroke-linejoin="round"/>
<path d="M377.161 410.742C342.316 420.717 306.253 425.776 270.013 425.775H109.137C72.8977 425.776 36.8348 420.716 1.98975 410.742H377.161Z" fill="white" stroke="#2E3238" stroke-width="1.75" stroke-linecap="round" stroke-linejoin="round"/>
<path d="M218.047 340.55C216.215 340.553 214.401 340.193 212.709 339.491C211.017 338.788 209.48 337.757 208.188 336.456L189.575 317.81L170.962 336.456C169.667 337.753 168.13 338.781 166.439 339.482C164.748 340.184 162.935 340.545 161.104 340.545C159.274 340.544 157.461 340.183 155.77 339.481C154.079 338.779 152.543 337.75 151.248 336.453C149.954 335.156 148.928 333.617 148.227 331.922C147.527 330.228 147.167 328.412 147.167 326.578C147.167 324.745 147.528 322.929 148.229 321.235C148.93 319.541 149.957 318.002 151.251 316.705L169.865 298.053L151.251 279.402C148.738 276.763 147.355 273.244 147.398 269.597C147.441 265.951 148.906 262.465 151.481 259.887C154.056 257.308 157.535 255.841 161.176 255.799C164.816 255.758 168.329 257.144 170.962 259.662L189.575 278.314L208.188 259.662C210.802 257.043 214.347 255.572 218.044 255.571C221.741 255.57 225.287 257.041 227.902 259.66C230.516 262.278 231.986 265.829 231.986 269.533C231.987 273.236 230.519 276.788 227.905 279.408L209.286 298.059L227.905 316.705C229.853 318.658 231.179 321.146 231.716 323.854C232.253 326.562 231.977 329.369 230.922 331.92C229.867 334.471 228.08 336.651 225.789 338.185C223.497 339.719 220.803 340.538 218.047 340.538V340.55Z" fill="white" stroke="#2E3238" stroke-width="1.75" stroke-linecap="round" stroke-linejoin="round"/>
<path d="M211.255 80.8767H466.641V237.678H211.255V80.8767Z" fill="#FFCDD7"/>
<path d="M211.255 80.8767H466.641V237.678H211.255V80.8767Z" stroke="#2E3238" stroke-width="1.75" stroke-linejoin="round"/>
<path d="M446.678 33.5841H230.598C227.995 33.5841 225.417 34.0978 223.012 35.0958C220.608 36.0938 218.423 37.5566 216.583 39.4007C214.742 41.2447 213.283 43.4339 212.287 45.8432C211.292 48.2524 210.779 50.8345 210.78 53.442V80.8106H466.496V53.442C466.496 50.8345 465.984 48.2524 464.989 45.8432C463.993 43.4339 462.534 41.2447 460.693 39.4007C458.853 37.5566 456.668 36.0938 454.264 35.0958C451.859 34.0978 449.281 33.5841 446.678 33.5841Z" fill="white"/>
<path d="M446.678 33.5841H230.598C225.342 33.5841 220.301 35.6756 216.585 39.3986C212.868 43.1216 210.78 48.171 210.78 53.4361V80.8106H466.496V53.4361C466.496 50.8291 465.983 48.2476 464.987 45.839C463.991 43.4305 462.532 41.242 460.691 39.3986C458.851 37.5552 456.666 36.0929 454.262 35.0952C451.858 34.0976 449.281 33.5841 446.678 33.5841Z" stroke="#2E3238" stroke-width="1.75" stroke-linejoin="round"/>
<path d="M230.597 57.0717C230.597 58.3755 230.854 59.6667 231.352 60.8713C231.85 62.076 232.58 63.1705 233.5 64.0925C234.421 65.0145 235.513 65.7459 236.716 66.2448C237.918 66.7438 239.207 67.0006 240.509 67.0006C241.81 67.0006 243.099 66.7438 244.302 66.2448C245.504 65.7459 246.597 65.0145 247.517 64.0925C248.438 63.1705 249.168 62.076 249.666 60.8713C250.164 59.6667 250.42 58.3755 250.42 57.0717C250.42 55.7678 250.164 54.4766 249.666 53.272C249.168 52.0674 248.438 50.9728 247.517 50.0508C246.597 49.1288 245.504 48.3975 244.302 47.8985C243.099 47.3995 241.81 47.1427 240.509 47.1427C239.207 47.1427 237.918 47.3995 236.716 47.8985C235.513 48.3975 234.421 49.1288 233.5 50.0508C232.58 50.9728 231.85 52.0674 231.352 53.272C230.854 54.4766 230.597 55.7678 230.597 57.0717Z" fill="#FF5971" stroke="#2E3238" stroke-width="1.75" stroke-linejoin="round"/>
<path d="M270.232 57.0717C270.232 59.705 271.276 62.2305 273.135 64.0925C274.994 65.9545 277.515 67.0006 280.144 67.0006C282.772 67.0006 285.293 65.9545 287.152 64.0925C289.011 62.2305 290.055 59.705 290.055 57.0717C290.055 54.4383 289.011 51.9129 287.152 50.0508C285.293 48.1888 282.772 47.1427 280.144 47.1427C277.515 47.1427 274.994 48.1888 273.135 50.0508C271.276 51.9129 270.232 54.4383 270.232 57.0717Z" fill="#FF5971" stroke="#2E3238" stroke-width="1.75" stroke-linejoin="round"/>
<path d="M309.867 57.0717C309.867 59.705 310.911 62.2305 312.77 64.0925C314.629 65.9545 317.15 67.0006 319.778 67.0006C322.407 67.0006 324.928 65.9545 326.787 64.0925C328.646 62.2305 329.69 59.705 329.69 57.0717C329.69 54.4383 328.646 51.9129 326.787 50.0508C324.928 48.1888 322.407 47.1427 319.778 47.1427C317.15 47.1427 314.629 48.1888 312.77 50.0508C310.911 51.9129 309.867 54.4383 309.867 57.0717Z" fill="#FF5971" stroke="#2E3238" stroke-width="1.75" stroke-linejoin="round"/>
<path d="M266.709 133.099C266.709 135.7 267.74 138.193 269.576 140.032C271.411 141.871 273.9 142.904 276.496 142.904C279.092 142.904 281.581 141.871 283.417 140.032C285.252 138.193 286.283 135.7 286.283 133.099C286.283 130.499 285.252 128.005 283.417 126.167C281.581 124.328 279.092 123.295 276.496 123.295C273.9 123.295 271.411 124.328 269.576 126.167C267.74 128.005 266.709 130.499 266.709 133.099Z" fill="white" stroke="#2E3238" stroke-width="1.75"/>
<path d="M390.679 133.099C390.679 135.7 391.71 138.193 393.545 140.032C395.381 141.871 397.87 142.904 400.466 142.904C403.061 142.904 405.551 141.871 407.386 140.032C409.222 138.193 410.253 135.7 410.253 133.099C410.253 130.499 409.222 128.005 407.386 126.167C405.551 124.328 403.061 123.295 400.466 123.295C397.87 123.295 395.381 124.328 393.545 126.167C391.71 128.005 390.679 130.499 390.679 133.099Z" fill="white" stroke="#2E3238" stroke-width="1.75"/>
<path d="M419.571 176.048C419.603 177.294 419.385 178.534 418.93 179.695C418.476 180.855 417.794 181.913 416.926 182.805C416.057 183.697 415.019 184.407 413.872 184.891C412.726 185.375 411.494 185.625 410.25 185.625C409.005 185.625 407.774 185.375 406.627 184.891C405.481 184.407 404.442 183.697 403.574 182.805C402.705 181.913 402.023 180.855 401.569 179.695C401.115 178.534 400.897 177.294 400.928 176.048C400.928 170.891 410.253 152.708 410.253 152.708C410.253 152.708 419.571 170.891 419.571 176.048Z" fill="white" stroke="#2E3238" stroke-width="1.75" stroke-linecap="round" stroke-linejoin="round"/>
<path d="M310.472 203.517C309.365 203.517 308.272 203.264 307.277 202.777C306.282 202.29 305.411 201.582 304.731 200.707C304.051 199.832 303.579 198.813 303.352 197.727C303.124 196.642 303.147 195.518 303.419 194.443C305.407 186.641 309.933 179.723 316.281 174.783C322.629 169.843 330.439 167.162 338.478 167.162C346.517 167.162 354.326 169.843 360.675 174.783C367.023 179.723 371.548 186.641 373.536 194.443C373.808 195.518 373.831 196.642 373.604 197.727C373.377 198.813 372.905 199.832 372.225 200.707C371.544 201.582 370.674 202.29 369.679 202.777C368.684 203.264 367.591 203.517 366.484 203.517C357.264 201.544 347.898 200.332 338.481 199.892C329.061 200.331 319.694 201.544 310.472 203.517Z" fill="white" stroke="#2E3238" stroke-width="1.75" stroke-linecap="round" stroke-linejoin="round"/>
</g>
<defs>
<clipPath id="clip0_716_26106">
<rect width="480" height="475.355" fill="white"/>
</clipPath>
</defs>
</svg>
