<svg width="260" height="104" viewBox="0 0 260 104" fill="none" xmlns="http://www.w3.org/2000/svg">
<mask id="path-1-inside-1_444_8978" fill="white">
<path d="M74.8075 -143.628C79.8249 -148.645 87.9597 -148.645 92.9771 -143.628L136.835 -99.7698C141.852 -94.7524 141.852 -86.6176 136.835 -81.6002C131.817 -76.5828 123.683 -76.5828 118.665 -81.6002L74.8075 -125.458C69.7901 -130.475 69.7901 -138.61 74.8075 -143.628Z"/>
<path d="M25.5198 -144.045C30.5372 -149.063 38.672 -149.063 43.6894 -144.045L65.4094 -122.325C70.4268 -117.308 70.4268 -109.173 65.4094 -104.156C60.392 -99.1382 52.2572 -99.1382 47.2398 -104.156L25.5198 -125.876C20.5024 -130.893 20.5024 -139.028 25.5198 -144.045Z"/>
<path d="M168.371 -50.0645C173.388 -55.0819 181.523 -55.0819 186.54 -50.0645L230.398 -6.20678C235.415 -1.18938 235.415 6.94543 230.398 11.9628C225.38 16.9802 217.246 16.9802 212.228 11.9628L168.371 -31.8949C163.353 -36.9122 163.353 -45.0471 168.371 -50.0645Z"/>
<path d="M96.9452 -72.6198C101.963 -77.6372 110.097 -77.6372 115.115 -72.6198L267.364 79.629C272.381 84.6464 272.381 92.7812 267.364 97.7986C262.346 102.816 254.211 102.816 249.194 97.7986L96.9452 -54.4502C91.9278 -59.4676 91.9278 -67.6024 96.9452 -72.6198Z"/>
<path d="M222.253 101.558C227.27 96.5404 235.405 96.5404 240.422 101.558L390.165 251.3C395.183 256.318 395.182 264.453 390.165 269.47C385.148 274.487 377.013 274.487 371.996 269.47L222.253 119.727C217.235 114.71 217.235 106.575 222.253 101.558Z"/>
<path d="M74.3898 -192.915C79.4072 -197.933 87.542 -197.933 92.5594 -192.915L139.132 -146.343C144.149 -141.325 144.149 -133.19 139.132 -128.173C134.115 -123.156 125.98 -123.156 120.962 -128.173L74.3898 -174.746C69.3724 -179.763 69.3724 -187.898 74.3898 -192.915Z"/>
<path d="M145.815 -121.49C150.833 -126.507 158.967 -126.507 163.985 -121.49L236.663 -48.8114C241.681 -43.794 241.681 -35.6592 236.663 -30.6418C231.646 -25.6244 223.511 -25.6244 218.494 -30.6418L145.815 -103.32C140.798 -108.338 140.798 -116.472 145.815 -121.49Z"/>
<path d="M298.899 129.334C303.917 124.317 312.052 124.317 317.069 129.334L389.747 202.013C394.765 207.03 394.765 215.165 389.747 220.182C384.73 225.2 376.595 225.2 371.578 220.182L298.899 147.504C293.882 142.487 293.882 134.352 298.899 129.334Z"/>
<path d="M268.199 0.893993C273.216 -4.12341 281.351 -4.12342 286.369 0.893981L359.047 73.5724C364.064 78.5898 364.064 86.7246 359.047 91.742C354.03 96.7594 345.895 96.7595 340.877 91.7421L268.199 19.0636C263.182 14.0462 263.182 5.91139 268.199 0.893993Z"/>
<path d="M261.934 43.4986C266.951 38.4812 275.086 38.4812 280.103 43.4986L352.782 116.177C357.799 121.194 357.799 129.329 352.782 134.347C347.764 139.364 339.629 139.364 334.612 134.347L261.934 61.6682C256.916 56.6508 256.916 48.516 261.934 43.4986Z"/>
<path d="M390.583 123.278C395.6 118.26 403.735 118.26 408.752 123.278L438.617 153.143C443.635 158.16 443.635 166.295 438.617 171.312C433.6 176.33 425.465 176.33 420.448 171.312L390.583 141.447C385.565 136.43 385.565 128.295 390.583 123.278Z"/>
<path d="M124.722 4.02667C129.739 -0.990723 137.874 -0.990723 142.891 4.02667L215.57 76.7051C220.587 81.7225 220.587 89.8573 215.57 94.8747C210.552 99.8921 202.418 99.8921 197.4 94.8747L124.722 22.1963C119.704 17.1789 119.704 9.04408 124.722 4.02667Z"/>
<path d="M3.79982 -116.895C8.81722 -121.913 16.952 -121.913 21.9694 -116.895L89.009 -49.8556C94.0264 -44.8382 94.0264 -36.7034 89.009 -31.686C83.9916 -26.6686 75.8568 -26.6686 70.8394 -31.686L3.79982 -98.7256C-1.21758 -103.743 -1.21758 -111.878 3.79982 -116.895Z"/>
<path d="M143.518 -74.9171C148.535 -79.9345 156.67 -79.9345 161.687 -74.9171C166.705 -69.8997 166.705 -61.7649 161.687 -56.7475C156.67 -51.7301 148.535 -51.7301 143.518 -56.7475C138.5 -61.7649 138.5 -69.8997 143.518 -74.9171Z"/>
<path d="M237.081 18.6459C242.098 13.6285 250.233 13.6285 255.251 18.6459C260.268 23.6633 260.268 31.7981 255.251 36.8155C250.233 41.8329 242.098 41.8329 237.081 36.8155C232.064 31.7981 232.064 23.6633 237.081 18.6459Z"/>
<path d="M365.73 98.4251C370.748 93.4077 378.882 93.4077 383.9 98.4251C388.917 103.443 388.917 111.577 383.9 116.595C378.882 121.612 370.748 121.612 365.73 116.595C360.713 111.577 360.713 103.443 365.73 98.4251Z"/>
<path d="M396.431 226.865C401.448 221.848 409.583 221.848 414.6 226.865C419.618 231.883 419.617 240.018 414.6 245.035C409.583 250.052 401.448 250.053 396.43 245.035C391.413 240.018 391.413 231.883 396.431 226.865Z"/>
<path d="M445.3 177.995C450.318 172.978 458.453 172.978 463.47 177.995C468.488 183.013 468.487 191.148 463.47 196.165C458.453 201.182 450.318 201.183 445.3 196.165C440.283 191.148 440.283 183.013 445.3 177.995Z"/>
<path d="M49.9548 -168.48C54.9722 -173.498 63.107 -173.498 68.1244 -168.48C73.1418 -163.463 73.1418 -155.328 68.1244 -150.311C63.107 -145.293 54.9722 -145.293 49.9548 -150.311C44.9374 -155.328 44.9374 -163.463 49.9548 -168.48Z"/>
<path d="M99.869 -20.826C104.886 -25.8434 113.021 -25.8434 118.039 -20.826C123.056 -15.8086 123.056 -7.6738 118.039 -2.6564C113.021 2.361 104.886 2.361 99.869 -2.6564C94.8516 -7.6738 94.8516 -15.8086 99.869 -20.826Z"/>
<path d="M72.0925 -97.4725C77.1099 -102.49 85.2447 -102.49 90.2621 -97.4725C95.2795 -92.4551 95.2795 -84.3203 90.2621 -79.3029C85.2447 -74.2855 77.1099 -74.2855 72.0925 -79.3029C67.0751 -84.3203 67.0751 -92.4551 72.0925 -97.4725Z"/>
<path d="M243.346 -23.9587C248.364 -28.9761 256.499 -28.9761 261.516 -23.9587C266.533 -18.9413 266.533 -10.8065 261.516 -5.78908C256.499 -0.771682 248.364 -0.771693 243.346 -5.78909C238.329 -10.8065 238.329 -18.9413 243.346 -23.9587Z"/>
</mask>
<path d="M438.682 220.247C433.859 225.069 426.041 225.069 421.219 220.247L420.512 220.954C425.725 226.166 434.176 226.166 439.389 220.954L438.682 220.247ZM438.682 202.784C443.504 207.606 443.504 215.424 438.682 220.247L439.389 220.954C444.601 215.741 444.601 207.29 439.389 202.077L438.682 202.784ZM92.27 -142.92L136.128 -99.0627L137.542 -100.477L93.6842 -144.335L92.27 -142.92ZM119.372 -82.3073L75.5146 -126.165L74.1004 -124.751L117.958 -80.8931L119.372 -82.3073ZM75.5146 -126.165C70.8877 -130.792 70.8877 -138.294 75.5146 -142.92L74.1004 -144.335C68.6925 -138.927 68.6925 -130.159 74.1004 -124.751L75.5146 -126.165ZM136.128 -82.3073C131.501 -77.6805 123.999 -77.6805 119.372 -82.3073L117.958 -80.8931C123.366 -75.4852 132.134 -75.4852 137.542 -80.8931L136.128 -82.3073ZM136.128 -99.0627C140.755 -94.4359 140.755 -86.9342 136.128 -82.3073L137.542 -80.8931C142.95 -86.301 142.95 -95.069 137.542 -100.477L136.128 -99.0627ZM93.6842 -144.335C88.2763 -149.743 79.5083 -149.743 74.1004 -144.335L75.5146 -142.92C80.1415 -147.547 87.6431 -147.547 92.27 -142.92L93.6842 -144.335ZM42.9823 -143.338L64.7023 -121.618L66.1165 -123.032L44.3965 -144.752L42.9823 -143.338ZM47.9469 -104.863L26.2269 -126.583L24.8127 -125.168L46.5327 -103.448L47.9469 -104.863ZM26.2269 -126.583C21.6 -131.21 21.6 -138.711 26.2269 -143.338L24.8127 -144.752C19.4048 -139.344 19.4048 -130.576 24.8127 -125.168L26.2269 -126.583ZM64.7023 -104.863C60.0754 -100.236 52.5738 -100.236 47.9469 -104.863L46.5327 -103.448C51.9406 -98.0406 60.7086 -98.0406 66.1165 -103.448L64.7023 -104.863ZM64.7023 -121.618C69.3292 -116.991 69.3292 -109.49 64.7023 -104.863L66.1165 -103.448C71.5244 -108.856 71.5244 -117.624 66.1165 -123.032L64.7023 -121.618ZM44.3965 -144.752C38.9886 -150.16 30.2206 -150.16 24.8127 -144.752L26.2269 -143.338C30.8538 -147.965 38.3554 -147.965 42.9823 -143.338L44.3965 -144.752ZM185.833 -49.3574L229.691 -5.49968L231.105 -6.91389L187.247 -50.7716L185.833 -49.3574ZM212.935 11.2557L169.078 -32.602L167.663 -31.1877L211.521 12.6699L212.935 11.2557ZM169.078 -32.602C164.451 -37.2288 164.451 -44.7305 169.078 -49.3574L167.663 -50.7716C162.256 -45.3636 162.256 -36.5957 167.663 -31.1877L169.078 -32.602ZM229.691 11.2557C225.064 15.8826 217.562 15.8826 212.935 11.2557L211.521 12.6699C216.929 18.0779 225.697 18.0779 231.105 12.6699L229.691 11.2557ZM229.691 -5.49968C234.318 -0.872796 234.318 6.62885 229.691 11.2557L231.105 12.6699C236.513 7.26202 236.513 -1.50596 231.105 -6.91389L229.691 -5.49968ZM187.247 -50.7716C181.839 -56.1795 173.071 -56.1795 167.663 -50.7716L169.078 -49.3574C173.705 -53.9842 181.206 -53.9842 185.833 -49.3574L187.247 -50.7716ZM114.408 -71.9127L266.656 80.3361L268.071 78.9219L115.822 -73.3269L114.408 -71.9127ZM249.901 97.0915L97.6523 -55.1573L96.2381 -53.7431L248.487 98.5057L249.901 97.0915ZM97.6523 -55.1573C93.0254 -59.7842 93.0254 -67.2859 97.6523 -71.9127L96.2381 -73.3269C90.8302 -67.919 90.8302 -59.151 96.2381 -53.7431L97.6523 -55.1573ZM266.656 97.0915C262.03 101.718 254.528 101.718 249.901 97.0915L248.487 98.5057C253.895 103.914 262.663 103.914 268.071 98.5057L266.656 97.0915ZM266.656 80.3361C271.283 84.9629 271.283 92.4646 266.656 97.0915L268.071 98.5057C273.479 93.0978 273.479 84.3298 268.071 78.9219L266.656 80.3361ZM115.822 -73.3269C110.414 -78.7349 101.646 -78.7349 96.2381 -73.3269L97.6523 -71.9127C102.279 -76.5396 109.781 -76.5396 114.408 -71.9127L115.822 -73.3269ZM239.715 102.265L389.458 252.008L390.872 250.593L241.13 100.851L239.715 102.265ZM372.703 268.763L222.96 119.02L221.546 120.435L371.288 270.177L372.703 268.763ZM222.96 119.02C218.333 114.393 218.333 106.892 222.96 102.265L221.546 100.851C216.138 106.259 216.138 115.027 221.546 120.435L222.96 119.02ZM389.458 268.763C384.831 273.39 377.329 273.39 372.703 268.763L371.288 270.177C376.696 275.585 385.464 275.585 390.872 270.177L389.458 268.763ZM389.458 252.008C394.085 256.634 394.085 264.136 389.458 268.763L390.872 270.177C396.28 264.769 396.28 256.001 390.872 250.593L389.458 252.008ZM241.13 100.851C235.722 95.4428 226.954 95.4428 221.546 100.851L222.96 102.265C227.587 97.638 235.088 97.638 239.715 102.265L241.13 100.851ZM91.8523 -192.208L138.425 -145.635L139.839 -147.05L93.2665 -193.622L91.8523 -192.208ZM121.67 -128.88L75.0969 -175.453L73.6827 -174.038L120.255 -127.466L121.67 -128.88ZM75.0969 -175.453C70.47 -180.08 70.47 -187.581 75.0969 -192.208L73.6827 -193.622C68.2748 -188.214 68.2748 -179.446 73.6827 -174.038L75.0969 -175.453ZM138.425 -128.88C133.798 -124.253 126.296 -124.253 121.67 -128.88L120.255 -127.466C125.663 -122.058 134.431 -122.058 139.839 -127.466L138.425 -128.88ZM138.425 -145.635C143.052 -141.009 143.052 -133.507 138.425 -128.88L139.839 -127.466C145.247 -132.874 145.247 -141.642 139.839 -147.05L138.425 -145.635ZM93.2665 -193.622C87.8586 -199.03 79.0906 -199.03 73.6827 -193.622L75.0969 -192.208C79.7238 -196.835 87.2254 -196.835 91.8523 -192.208L93.2665 -193.622ZM163.278 -120.783L235.956 -48.1043L237.37 -49.5185L164.692 -122.197L163.278 -120.783ZM219.201 -31.3489L146.522 -104.027L145.108 -102.613L217.787 -29.9347L219.201 -31.3489ZM146.522 -104.027C141.895 -108.654 141.895 -116.156 146.522 -120.783L145.108 -122.197C139.7 -116.789 139.7 -108.021 145.108 -102.613L146.522 -104.027ZM235.956 -31.3489C231.329 -26.722 223.828 -26.722 219.201 -31.3489L217.787 -29.9347C223.194 -24.5267 231.962 -24.5267 237.37 -29.9347L235.956 -31.3489ZM235.956 -48.1043C240.583 -43.4774 240.583 -35.9758 235.956 -31.3489L237.37 -29.9347C242.778 -35.3426 242.778 -44.1106 237.37 -49.5185L235.956 -48.1043ZM164.692 -122.197C159.284 -127.605 150.516 -127.605 145.108 -122.197L146.522 -120.783C151.149 -125.41 158.651 -125.41 163.278 -120.783L164.692 -122.197ZM316.362 130.041L389.04 202.72L390.455 201.306L317.776 128.627L316.362 130.041ZM372.285 219.475L299.606 146.797L298.192 148.211L370.871 220.89L372.285 219.475ZM299.606 146.797C294.98 142.17 294.98 134.668 299.606 130.041L298.192 128.627C292.784 134.035 292.784 142.803 298.192 148.211L299.606 146.797ZM389.04 219.475C384.413 224.102 376.912 224.102 372.285 219.475L370.871 220.89C376.279 226.297 385.047 226.297 390.455 220.89L389.04 219.475ZM389.04 202.72C393.667 207.347 393.667 214.848 389.04 219.475L390.455 220.89C395.862 215.482 395.862 206.714 390.455 201.306L389.04 202.72ZM317.776 128.627C312.368 123.219 303.6 123.219 298.192 128.627L299.606 130.041C304.233 125.415 311.735 125.415 316.362 130.041L317.776 128.627ZM285.661 1.60109L358.34 74.2795L359.754 72.8653L287.076 0.186874L285.661 1.60109ZM341.585 91.0349L268.906 18.3565L267.492 19.7707L340.17 92.4492L341.585 91.0349ZM268.906 18.3565C264.279 13.7296 264.279 6.22797 268.906 1.6011L267.492 0.186886C262.084 5.59481 262.084 14.3628 267.492 19.7707L268.906 18.3565ZM358.34 91.0349C353.713 95.6618 346.211 95.6618 341.585 91.0349L340.17 92.4492C345.578 97.8571 354.346 97.8571 359.754 92.4491L358.34 91.0349ZM358.34 74.2795C362.967 78.9064 362.967 86.4081 358.34 91.0349L359.754 92.4491C365.162 87.0412 365.162 78.2733 359.754 72.8653L358.34 74.2795ZM287.076 0.186874C281.668 -5.22104 272.9 -5.22104 267.492 0.186886L268.906 1.6011C273.533 -3.02578 281.035 -3.02577 285.661 1.60109L287.076 0.186874ZM279.396 44.2057L352.075 116.884L353.489 115.47L280.81 42.7915L279.396 44.2057ZM335.319 133.64L262.641 60.9611L261.226 62.3753L333.905 135.054L335.319 133.64ZM262.641 60.9611C258.014 56.3342 258.014 48.8326 262.641 44.2057L261.227 42.7915C255.819 48.1994 255.819 56.9674 261.226 62.3753L262.641 60.9611ZM352.075 133.64C347.448 138.266 339.946 138.266 335.319 133.64L333.905 135.054C339.313 140.462 348.081 140.462 353.489 135.054L352.075 133.64ZM352.075 116.884C356.701 121.511 356.701 129.013 352.075 133.64L353.489 135.054C358.897 129.646 358.897 120.878 353.489 115.47L352.075 116.884ZM280.81 42.7915C275.402 37.3836 266.634 37.3836 261.227 42.7915L262.641 44.2057C267.268 39.5788 274.769 39.5788 279.396 44.2057L280.81 42.7915ZM408.045 123.985L437.91 153.85L439.325 152.436L409.46 122.571L408.045 123.985ZM421.155 170.605L391.29 140.74L389.876 142.155L419.741 172.02L421.155 170.605ZM391.29 140.74C386.663 136.113 386.663 128.612 391.29 123.985L389.876 122.571C384.468 127.979 384.468 136.747 389.876 142.155L391.29 140.74ZM437.91 170.605C433.283 175.232 425.782 175.232 421.155 170.605L419.741 172.02C425.149 177.427 433.917 177.427 439.325 172.02L437.91 170.605ZM437.91 153.85C442.537 158.477 442.537 165.978 437.91 170.605L439.325 172.02C444.732 166.612 444.732 157.844 439.325 152.436L437.91 153.85ZM409.46 122.571C404.052 117.163 395.284 117.163 389.876 122.571L391.29 123.985C395.917 119.358 403.418 119.358 408.045 123.985L409.46 122.571ZM142.184 4.73378L214.863 77.4122L216.277 75.998L143.598 3.31957L142.184 4.73378ZM198.107 94.1676L125.429 21.4892L124.015 22.9034L196.693 95.5818L198.107 94.1676ZM125.429 21.4892C120.802 16.8623 120.802 9.36066 125.429 4.73378L124.015 3.31957C118.607 8.7275 118.607 17.4955 124.015 22.9034L125.429 21.4892ZM214.863 94.1676C210.236 98.7945 202.734 98.7945 198.107 94.1676L196.693 95.5818C202.101 100.99 210.869 100.99 216.277 95.5818L214.863 94.1676ZM214.863 77.4122C219.49 82.0391 219.49 89.5407 214.863 94.1676L216.277 95.5818C221.685 90.1739 221.685 81.4059 216.277 75.998L214.863 77.4122ZM143.598 3.31957C138.191 -2.08835 129.423 -2.08835 124.015 3.31957L125.429 4.73378C130.056 0.106907 137.557 0.106913 142.184 4.73378L143.598 3.31957ZM21.2623 -116.188L88.3019 -49.1485L89.7161 -50.5627L22.6765 -117.602L21.2623 -116.188ZM71.5465 -32.3931L4.50693 -99.4327L3.09272 -98.0185L70.1323 -30.9789L71.5465 -32.3931ZM4.50693 -99.4327C-0.119946 -104.06 -0.11995 -111.561 4.50693 -116.188L3.09272 -117.602C-2.31521 -112.194 -2.31521 -103.426 3.09272 -98.0185L4.50693 -99.4327ZM88.3019 -32.3931C83.6751 -27.7662 76.1734 -27.7662 71.5465 -32.3931L70.1323 -30.9789C75.5402 -25.571 84.3082 -25.571 89.7161 -30.9789L88.3019 -32.3931ZM88.3019 -49.1485C92.9288 -44.5216 92.9288 -37.02 88.3019 -32.3931L89.7161 -30.9789C95.1241 -36.3868 95.1241 -45.1548 89.7161 -50.5627L88.3019 -49.1485ZM22.6765 -117.602C17.2686 -123.01 8.50064 -123.01 3.09272 -117.602L4.50693 -116.188C9.1338 -120.815 16.6355 -120.815 21.2623 -116.188L22.6765 -117.602ZM144.225 -57.4546C139.598 -62.0815 139.598 -69.5832 144.225 -74.21L142.811 -75.6243C137.403 -70.2163 137.403 -61.4484 142.811 -56.0404L144.225 -57.4546ZM160.98 -57.4546C156.353 -52.8278 148.852 -52.8278 144.225 -57.4546L142.811 -56.0404C148.219 -50.6325 156.987 -50.6325 162.395 -56.0404L160.98 -57.4546ZM160.98 -74.21C165.607 -69.5832 165.607 -62.0815 160.98 -57.4546L162.395 -56.0404C167.803 -61.4484 167.802 -70.2163 162.395 -75.6243L160.98 -74.21ZM162.395 -75.6243C156.987 -81.0322 148.219 -81.0322 142.811 -75.6243L144.225 -74.21C148.852 -78.8369 156.353 -78.8369 160.98 -74.21L162.395 -75.6243ZM237.788 36.1084C233.161 31.4815 233.161 23.9799 237.788 19.353L236.374 17.9388C230.966 23.3467 230.966 32.1147 236.374 37.5226L237.788 36.1084ZM254.543 36.1084C249.917 40.7353 242.415 40.7353 237.788 36.1084L236.374 37.5226C241.782 42.9306 250.55 42.9306 255.958 37.5226L254.543 36.1084ZM254.543 19.353C259.17 23.9799 259.17 31.4815 254.543 36.1084L255.958 37.5226C261.366 32.1147 261.366 23.3467 255.958 17.9388L254.543 19.353ZM255.958 17.9388C250.55 12.5309 241.782 12.5309 236.374 17.9388L237.788 19.353C242.415 14.7261 249.917 14.7261 254.543 19.353L255.958 17.9388ZM366.437 115.888C361.81 111.261 361.81 103.759 366.437 99.1322L365.023 97.718C359.615 103.126 359.615 111.894 365.023 117.302L366.437 115.888ZM383.193 115.888C378.566 120.514 371.064 120.514 366.437 115.888L365.023 117.302C370.431 122.71 379.199 122.71 384.607 117.302L383.193 115.888ZM383.193 99.1322C387.819 103.759 387.819 111.261 383.193 115.888L384.607 117.302C390.015 111.894 390.015 103.126 384.607 97.718L383.193 99.1322ZM384.607 97.718C379.199 92.3101 370.431 92.3101 365.023 97.718L366.437 99.1322C371.064 94.5053 378.566 94.5054 383.193 99.1322L384.607 97.718ZM397.138 244.328C392.511 239.701 392.511 232.199 397.138 227.573L395.723 226.158C390.315 231.566 390.315 240.334 395.723 245.742L397.138 244.328ZM413.893 244.328C409.266 248.955 401.764 248.955 397.138 244.328L395.723 245.742C401.131 251.15 409.899 251.15 415.307 245.742L413.893 244.328ZM413.893 227.573C418.52 232.199 418.52 239.701 413.893 244.328L415.307 245.742C420.715 240.334 420.715 231.566 415.307 226.158L413.893 227.573ZM415.307 226.158C409.899 220.75 401.131 220.75 395.723 226.158L397.138 227.573C401.764 222.946 409.266 222.946 413.893 227.573L415.307 226.158ZM446.008 195.458C441.381 190.831 441.381 183.329 446.008 178.703L444.593 177.288C439.185 182.696 439.185 191.464 444.593 196.872L446.008 195.458ZM462.763 195.458C458.136 200.085 450.634 200.085 446.008 195.458L444.593 196.872C450.001 202.28 458.769 202.28 464.177 196.872L462.763 195.458ZM462.763 178.703C467.39 183.329 467.39 190.831 462.763 195.458L464.177 196.872C469.585 191.464 469.585 182.696 464.177 177.288L462.763 178.703ZM464.177 177.288C458.769 171.88 450.001 171.88 444.593 177.288L446.008 178.703C450.634 174.076 458.136 174.076 462.763 178.703L464.177 177.288ZM50.6619 -151.018C46.035 -155.645 46.035 -163.146 50.6619 -167.773L49.2477 -169.187C43.8398 -163.779 43.8398 -155.011 49.2477 -149.603L50.6619 -151.018ZM67.4173 -151.018C62.7904 -146.391 55.2888 -146.391 50.6619 -151.018L49.2477 -149.603C54.6556 -144.196 63.4236 -144.196 68.8315 -149.603L67.4173 -151.018ZM67.4173 -167.773C72.0442 -163.146 72.0442 -155.645 67.4173 -151.018L68.8315 -149.603C74.2395 -155.011 74.2395 -163.779 68.8315 -169.187L67.4173 -167.773ZM68.8315 -169.187C63.4236 -174.595 54.6556 -174.595 49.2477 -169.187L50.6619 -167.773C55.2888 -172.4 62.7904 -172.4 67.4173 -167.773L68.8315 -169.187ZM100.576 -3.36351C95.9493 -7.99037 95.9493 -15.492 100.576 -20.1189L99.1619 -21.5331C93.754 -16.1252 93.754 -7.35721 99.1619 -1.94929L100.576 -3.36351ZM117.332 -3.36351C112.705 1.26337 105.203 1.26337 100.576 -3.36351L99.1619 -1.94929C104.57 3.45864 113.338 3.45864 118.746 -1.94929L117.332 -3.36351ZM117.332 -20.1189C121.958 -15.492 121.958 -7.99038 117.332 -3.36351L118.746 -1.94929C124.154 -7.35721 124.154 -16.1252 118.746 -21.5331L117.332 -20.1189ZM118.746 -21.5331C113.338 -26.941 104.57 -26.941 99.1619 -21.5331L100.576 -20.1189C105.203 -24.7458 112.705 -24.7458 117.332 -20.1189L118.746 -21.5331ZM72.7996 -80.01C68.1727 -84.6369 68.1727 -92.1385 72.7996 -96.7654L71.3854 -98.1796C65.9775 -92.7717 65.9775 -84.0037 71.3854 -78.5958L72.7996 -80.01ZM89.555 -80.01C84.9281 -75.3831 77.4265 -75.3831 72.7996 -80.01L71.3854 -78.5958C76.7933 -73.1879 85.5613 -73.1879 90.9692 -78.5958L89.555 -80.01ZM89.555 -96.7654C94.1819 -92.1385 94.1819 -84.6369 89.555 -80.01L90.9692 -78.5958C96.3771 -84.0037 96.3771 -92.7717 90.9692 -98.1796L89.555 -96.7654ZM90.9692 -98.1796C85.5613 -103.588 76.7933 -103.588 71.3854 -98.1796L72.7996 -96.7654C77.4265 -101.392 84.9281 -101.392 89.555 -96.7654L90.9692 -98.1796ZM244.053 -6.4962C239.427 -11.1231 239.427 -18.6247 244.053 -23.2516L242.639 -24.6658C237.231 -19.2579 237.231 -10.4899 242.639 -5.08198L244.053 -6.4962ZM260.809 -6.49619C256.182 -1.86931 248.68 -1.86932 244.053 -6.4962L242.639 -5.08198C248.047 0.325954 256.815 0.325948 262.223 -5.08197L260.809 -6.49619ZM260.809 -23.2516C265.436 -18.6247 265.436 -11.1231 260.809 -6.49619L262.223 -5.08197C267.631 -10.4899 267.631 -19.2579 262.223 -24.6658L260.809 -23.2516ZM262.223 -24.6658C256.815 -30.0737 248.047 -30.0737 242.639 -24.6658L244.053 -23.2516C248.68 -27.8785 256.182 -27.8785 260.809 -23.2516L262.223 -24.6658Z" fill="#FA837A" mask="url(#path-1-inside-1_444_8978)"/>
</svg>
