<svg width="111" height="35" viewBox="0 0 111 35" fill="none" xmlns="http://www.w3.org/2000/svg">
<path d="M45.7185 3.86918V31.3538" stroke="#EF3038" stroke-miterlimit="10" stroke-linecap="round"/>
<path d="M76.0586 15.3546C75.0603 15.3546 74.4249 16.0015 74.2283 16.8591H77.7833C77.6622 15.9113 76.9966 15.3546 76.0586 15.3546Z" fill="#EF3038"/>
<path d="M66.5588 15.7306C65.2881 15.7306 64.4863 16.6034 64.4863 17.8221C64.4863 19.0257 65.3033 19.9284 66.5588 19.9284C67.8144 19.9284 68.6615 19.0709 68.6615 17.8221C68.6615 16.5733 67.8144 15.7306 66.5588 15.7306Z" fill="#EF3038"/>
<path d="M76.8303 20.1843C77.5111 20.1843 78.1418 19.9888 78.732 19.7179L78.5398 21.5385C77.8742 21.8093 77.0724 21.9145 76.2706 21.9145C73.6081 21.9145 71.7322 20.3649 71.7322 17.7318C71.7321 15.4448 73.4114 13.7296 75.9831 13.7296C78.8878 13.7296 80.34 15.5652 80.2795 18.3939H74.2888C74.5159 19.6879 75.7563 20.1843 76.8303 20.1843ZM70.9914 17.3557C70.9914 20.2294 69.2819 21.9145 66.453 21.9145C63.8359 21.9145 62.0658 20.1693 62.0658 17.8221C62.0658 15.3696 63.745 13.7296 66.2562 13.7296C67.406 13.7296 68.2531 14.181 68.6768 14.6323L68.6768 11.1416H70.9914V17.3557ZM92.2134 13.7296C90.3049 13.7296 88.8187 14.488 88.5764 16.4557C88.5582 16.4567 88.5881 16.4549 88.5698 16.456C87.9699 7.53656 80.8948 0.485184 71.7763 0.485184C64.5694 0.485184 58.4005 4.89147 55.8352 11.1416H61.945L61.6274 13.1879H56.8319V15.3546H61.1736L60.8407 17.3255H56.8319V18.5895C56.8319 19.3568 57.1647 19.7179 57.8001 19.7179H61.8998L61.5671 21.7642H57.0286C56.8074 21.7642 56.5972 21.744 56.3973 21.708V21.7096C56.3973 21.7096 55.6114 21.6243 55.1251 20.9952C55.1131 20.9806 54.9151 20.7465 54.8175 20.361C54.792 20.2603 54.7903 20.2536 54.7698 20.1757C54.8019 20.4305 54.8568 20.7722 54.8814 20.8993C55.0191 21.6129 55.1948 22.2173 55.2103 22.2599C57.2491 29.4537 63.8912 34.7284 71.7764 34.7284C79.842 34.7284 86.6555 29.2107 88.5233 21.7642H86.2099V17.5814C86.2099 16.453 85.7709 15.7306 84.6515 15.7306C83.5317 15.7306 83.0931 16.453 83.0931 17.5814V21.7642H80.7785V17.0096C80.7785 14.7376 82.4424 13.7296 84.6515 13.7296C86.8596 13.7296 88.5242 14.7376 88.5242 17.0096L88.5233 21.7642H90.8517V17.5814C90.8517 16.453 91.1546 15.7306 92.2582 15.7306C92.6068 15.7306 93.03 15.836 93.1818 15.9113L93.6199 13.8951C93.3627 13.865 92.7121 13.7296 92.2134 13.7296Z" fill="#EF3038"/>
<path d="M95.7075 16.8591C95.9041 16.0015 96.5397 15.3546 97.538 15.3546C98.4757 15.3546 99.1412 15.9113 99.2623 16.8591H95.7075ZM97.4625 13.7296C94.8901 13.7296 93.2114 15.4448 93.2114 17.7318C93.2114 20.3649 95.0868 21.9146 97.7496 21.9146C98.5512 21.9146 99.3536 21.8093 100.019 21.5385L100.211 19.7179C99.6208 19.9887 98.9901 20.1843 98.3097 20.1843C97.2351 20.1843 95.9946 19.6877 95.768 18.3938H101.758C101.819 15.5652 100.367 13.7296 97.4625 13.7296Z" fill="#EF3038"/>
<path d="M106.508 19.9285C105.253 19.9285 104.435 19.0257 104.435 17.822C104.435 16.6034 105.238 15.7307 106.508 15.7307C107.764 15.7307 108.611 16.5733 108.611 17.822C108.611 19.0709 107.764 19.9285 106.508 19.9285ZM108.626 11.1416V14.6323C108.203 14.181 107.355 13.7296 106.206 13.7296C103.694 13.7296 102.016 15.3696 102.016 17.822C102.016 20.1693 103.786 21.9146 106.403 21.9146C109.232 21.9146 110.941 20.2295 110.941 17.3558V11.1416H108.626Z" fill="#EF3038"/>
<path d="M31.2575 18.8755H26.0394C26.2371 20.0026 27.3175 20.435 28.2531 20.435C28.846 20.435 29.3731 20.304 29.8871 20.068L29.7421 21.6145C29.1624 21.8505 28.4641 21.9421 27.7657 21.9421C25.4465 21.9421 23.8127 20.5922 23.8127 18.2989C23.8127 16.3068 25.2752 14.8129 27.5153 14.8129C30.0451 14.8129 31.3101 16.4118 31.2575 18.8755ZM21.8228 21.8111C21.7174 21.5621 21.5592 21.1559 21.4275 20.7496L21.1244 19.7405C20.9663 19.2031 20.7554 18.9804 20.2415 18.9804H19.3719V21.8111H17.3559V12.5588H19.3719V17.6568H19.5959L21.5065 14.944H23.7465L21.4933 17.7747H21.6119C22.5079 17.7747 22.7714 18.2726 22.9954 19.0066L23.3776 20.2777C23.5094 20.7496 23.7861 21.4179 23.9968 21.8111H21.8228ZM15.3661 20.2777C15.8931 20.2777 16.3281 20.1336 16.6575 19.9763L16.473 21.6407C16.0514 21.8505 15.4583 21.9552 14.9445 21.9552C12.7703 21.9552 11.2683 20.553 11.2683 18.3643C11.2683 16.2021 12.744 14.8129 14.9313 14.8129C15.7351 14.8129 16.3544 14.9701 16.9868 15.2585L16.407 16.8049C16.104 16.6215 15.6824 16.4773 15.2344 16.4773C14.1276 16.4773 13.4028 17.198 13.4028 18.3643C13.4028 19.5175 14.167 20.2908 15.3661 20.2777ZM10.6487 14.066H8.59329V12.5588H10.6487V14.066ZM10.6487 21.8111H8.59329V14.944H10.6487V21.8111ZM31.6925 18.1022V13.4369L33.7481 12.6113V15.075H35.1315L34.8548 16.6084H33.7216V18.181C33.7216 19.7086 34.3039 20.7845 34.9211 21.6482C35.2275 20.3698 35.3906 19.0362 35.3906 17.6645C35.3904 8.20835 27.683 0.54287 18.1755 0.54287C10.456 0.54295 3.92336 5.59668 1.73924 12.5588H8.14505L7.89468 14.3936H5.21985V21.8111H3.0324V14.3936H1.27579C1.06983 15.4525 0.960693 16.5458 0.960693 17.6646C0.960758 27.1205 8.66811 34.7862 18.1757 34.7862C26.2454 34.7862 33.0171 29.2632 34.8812 21.8111H32.852C32.4964 21.195 31.6794 20.0812 31.6925 18.1022Z" fill="#EF3038"/>
<path d="M27.5811 16.2283C26.7115 16.2283 26.1581 16.7918 25.9868 17.5389H29.0833C28.9778 16.7131 28.3981 16.2283 27.5811 16.2283Z" fill="#EF3038"/>
<path d="M37.4526 13.0748C37.4526 13.2076 37.4992 13.2605 37.6992 13.2605H37.8592C38.0791 13.2605 38.2057 13.1478 38.2057 12.9622C38.2057 12.7103 38.0657 12.6638 37.8325 12.6638H37.4526V13.0748ZM38.0124 12.3392C38.4257 12.3392 38.6123 12.644 38.6123 12.9292C38.6123 13.2406 38.3657 13.4461 38.1124 13.4528C38.379 13.466 38.4323 13.7843 38.5523 14.056C38.5857 14.1223 38.6456 14.2483 38.6856 14.2881H38.2257C38.1991 14.2549 38.1657 14.1753 38.1324 14.0825C38.0324 13.8108 37.9991 13.5787 37.7325 13.5787H37.6325C37.5126 13.5787 37.4792 13.5257 37.4526 13.4792V14.2814H37.0527V12.3392H38.0124ZM37.7792 14.7454C38.5723 14.7454 39.2122 14.1023 39.2122 13.3135C39.2122 12.5247 38.5723 11.8816 37.7792 11.8816C36.986 11.8816 36.3395 12.5247 36.3395 13.3135C36.3395 14.1023 36.986 14.7454 37.7792 14.7454ZM37.7792 11.4574C38.8056 11.4574 39.6454 12.2927 39.6454 13.3135C39.6454 14.3344 38.8056 15.1697 37.7792 15.1697C36.7527 15.1697 35.9062 14.3344 35.9062 13.3135C35.9062 12.2927 36.7527 11.4574 37.7792 11.4574Z" fill="#EF3038"/>
</svg>
