<svg width="320" height="319" viewBox="0 0 320 319" fill="none" xmlns="http://www.w3.org/2000/svg">
<g clip-path="url(#clip0_715_11558)">
<path d="M186.434 151.252C166.709 144.89 161.98 124.979 161.98 124.979C162.642 124.033 163.289 123.076 163.919 122.108L164.557 111.837C154.254 108.988 160.103 96.4417 160.103 96.4417C155.378 89.5359 151.434 82.127 148.344 74.351C142.623 74.9083 137.143 76.9328 132.434 80.2285C136.372 93.3761 143.023 109.608 157.157 131.235C151.075 138.827 141.148 150.831 136.366 157.074L98.2452 140.008L89.5557 157.98L132.343 179.889C135.298 181.271 138.643 181.58 141.802 180.761C144.96 179.943 147.734 178.048 149.646 175.404L159.01 162.494C162.768 168.252 165.647 172.979 176.076 177.343C187.171 172.351 191.975 166.304 196.137 157.98C192.536 156.319 189.252 154.042 186.434 151.252Z" fill="#FFBDC9"/>
<path d="M186.949 228.919L185.404 220.464L221.524 213.799L223.07 222.252L186.949 228.919Z" fill="#FFBDC9"/>
<path d="M218.556 221.798L212.889 215.375L243.404 188.465L249.07 194.888L218.556 221.798Z" fill="#FFBDC9"/>
<path d="M79.8274 93.282C78.5457 93.2456 77.302 93.7199 76.3699 94.6005C75.4379 95.4811 74.8938 96.6959 74.8574 97.9777C74.821 99.2594 75.2953 100.503 76.1759 101.435C77.0565 102.367 78.2713 102.911 79.5531 102.948C80.8349 102.984 82.0786 102.51 83.0106 101.629C83.9427 100.749 84.4867 99.5337 84.5231 98.252C84.5595 96.9702 84.0852 95.7265 83.2046 94.7945C82.324 93.8624 81.1092 93.3184 79.8274 93.282Z" fill="#FFBDC9"/>
<path d="M83.7672 71.0398C85.0606 69.0758 85.8516 66.8242 86.0708 64.4829C86.29 62.1416 85.9307 59.7823 85.0245 57.6124C84.1182 55.4425 82.6927 53.5285 80.8734 52.0386C79.0541 50.5487 76.8966 49.5285 74.5906 49.0678C72.2846 48.6072 69.9008 48.72 67.6486 49.3965C65.3965 50.073 63.3451 51.2924 61.6746 52.9476C60.0042 54.6027 58.766 56.6428 58.0688 58.8887C57.3716 61.1345 57.2368 63.5172 57.6762 65.8273C57.7129 66.0729 57.7624 66.3154 57.8278 66.5546L64.7963 65.2531C64.5081 64.3031 64.4169 63.3043 64.5282 62.3178C64.6396 61.3314 64.9512 60.378 65.4439 59.5162C65.9367 58.6544 66.6002 57.9023 67.3939 57.3059C68.1875 56.7096 69.0946 56.2815 70.0595 56.0481C71.0244 55.8146 72.0268 55.7806 73.0053 55.9481C73.9838 56.1157 74.9178 56.4813 75.75 57.0225C76.5822 57.5636 77.2952 58.2691 77.8453 59.0955C78.3953 59.9219 78.7708 60.852 78.9487 61.8286C79.5867 65.3073 77.6967 67.9774 75.3425 70.9201C73.7968 72.7629 72.9498 75.0912 72.95 77.4963C72.9595 81.0883 73.387 84.669 74.226 88.1621L81.4035 86.7984C80.6334 83.5853 80.297 80.2835 80.4034 76.9811C80.858 74.6764 82.5247 72.9187 83.7672 71.0398Z" fill="#FFBDC9"/>
<path fill-rule="evenodd" clip-rule="evenodd" d="M65.3513 11.9657C76.9884 10.5429 88.7934 12.3144 99.5003 17.0905C120.101 26.2681 132.756 44.1672 136.531 63.7203C136.531 63.7203 136.624 66.3552 136.823 68.3857C135.565 69.1449 133.088 67.0347 130.923 65.1893C128.971 63.5257 127.272 62.079 126.953 63.1525C126.647 64.1844 127.384 65.2898 128.555 67.0443C130.126 69.3985 132.475 72.9203 134.131 79.002L132.536 80.2987C133.019 82.2319 134.163 85.4825 135.507 89.3105L136.059 90.8847C133.383 102.458 127.457 113.48 118.095 122.493C110.098 130.228 100.239 135.766 89.4725 138.57C89.2333 138.634 87.6032 137.575 85.6652 136.317C83.0159 134.594 79.7908 132.5 78.7541 132.385C77.1097 132.202 80.9983 137.218 82.6778 139.387C82.8309 139.582 82.9649 139.754 83.0734 139.898C74.6002 141.221 65.9482 140.845 57.6222 138.789C49.2963 136.734 41.463 133.041 34.5796 127.925C27.6961 122.81 21.9003 116.375 17.5303 108.996C13.1603 101.617 10.3036 93.4419 9.12693 84.947C7.95027 76.4522 8.47718 67.808 10.6769 59.519C12.8767 51.2299 16.7052 43.462 21.9391 36.6684C27.173 29.8748 33.7075 24.1915 41.1613 19.9503C48.6151 15.7091 56.8373 12.9947 65.3513 11.9657ZM67.0516 25.7896C76.1552 24.6762 85.3902 26.0618 93.7662 29.7978C126.77 44.5005 133.697 87.8176 108.313 112.251C102.553 117.823 95.5513 121.945 87.8847 124.276C80.2181 126.608 72.1069 127.083 64.2207 125.661C56.3345 124.239 48.8995 120.962 42.5297 116.1C36.1599 111.238 31.0379 104.931 27.5867 97.6991C24.1354 90.4671 22.4539 82.5178 22.681 74.5077C22.908 66.4977 25.0371 58.6564 28.8925 51.6315C32.7478 44.6066 38.2189 38.5995 44.8539 34.1062C51.4889 29.6129 59.0975 26.7622 67.0516 25.7896Z" fill="#F72717"/>
<path d="M249.161 206.616L252.858 201.01L247.161 196.525L244.162 199.222L249.161 206.616Z" fill="#F72717"/>
<path d="M268.738 213.411L263.953 224.417C262.51 227.769 260.022 230.566 256.861 232.392L280.742 251.01L294.803 233.677L268.738 213.411Z" fill="#F72717"/>
<path d="M243.556 129.525C247.535 130.081 251.575 129.072 254.825 126.709C258.075 124.346 260.281 120.815 260.98 116.858C256.076 115.28 250.905 114.701 245.773 115.154C240.642 115.606 235.653 117.082 231.101 119.494C232.08 122.134 233.754 124.46 235.947 126.225C238.139 127.991 240.768 129.131 243.556 129.525Z" fill="#F72717"/>
<path d="M152.252 123.464L130.191 106.313C127.02 113.036 122.43 118.992 116.737 123.772L145.128 146.166L157.19 131.227L152.252 123.464Z" fill="#F72717"/>
<path d="M169.948 147.585L159.043 162.617C159.811 164.027 160.703 165.365 161.71 166.615L169.948 147.585Z" fill="#F72717"/>
<path d="M164.374 114.979L168.706 111.92C167.332 112.009 165.954 111.979 164.586 111.829L164.374 114.979Z" fill="#F72717"/>
<path d="M193.19 130.768C193.509 128.324 192.955 125.847 191.624 123.773C190.293 121.699 188.273 120.162 185.919 119.434C186.22 118.568 186.313 117.644 186.192 116.736C184.191 102.131 181.161 93.1305 176.161 87.9802C172.766 84.4329 165.828 85.0103 161.707 90.1909C157.614 95.3794 158.643 102.224 158.616 102.791C159.031 97.6931 161.41 92.9554 165.252 89.5784C166.328 88.6956 167.592 88.0732 168.948 87.7601C168.736 92.3681 172.403 99.67 176.827 97.8517C179.786 96.6443 180.142 101.999 174.312 101.999C172.736 114.634 173.221 129.114 179.04 140.909L179.979 142.695C182.839 147.904 186.927 152.336 191.889 155.605C195.184 155.777 198.413 154.633 200.865 152.425C203.317 150.217 204.792 147.126 204.965 143.831C205.136 140.536 203.992 137.308 201.784 134.856C199.577 132.404 196.485 130.93 193.19 130.757V130.768Z" fill="#F72717"/>
<path d="M249.161 206.616L252.858 201.01L247.161 196.525L244.162 199.222L249.161 206.616Z" stroke="#2E3238" stroke-width="1.5" stroke-linejoin="round"/>
<path d="M268.738 213.411L263.953 224.416C262.51 227.769 260.022 230.566 256.861 232.391L280.742 251.01L294.803 233.677L268.738 213.411Z" stroke="#2E3238" stroke-width="1.5"/>
<path d="M152.252 123.464L130.191 106.313C127.02 113.036 122.43 118.992 116.737 123.772L145.128 146.166L157.19 131.227L152.252 123.464Z" stroke="#2E3238" stroke-width="1.5"/>
<path d="M159.646 95.7974C155.07 89.1067 151.286 81.907 148.372 74.343C142.65 74.8982 137.17 76.9259 132.464 80.2286C136.404 93.3793 143.039 109.593 157.186 131.229" stroke="#2E3238" stroke-width="1.5" stroke-linecap="round" stroke-linejoin="round"/>
<path d="M137.313 71.0701C136.463 66.6492 136.137 62.1436 136.343 57.6465C136.252 55.3228 136.413 52.9961 136.821 50.7067C137.938 44.4272 139.467 45.0397 139.973 51.1007C141.209 65.9469 144.758 70.8579 146.063 74.6764" stroke="#2E3238" stroke-width="1.5" stroke-linecap="round" stroke-linejoin="round"/>
<path d="M136.554 52.6159C135.538 50.4729 134.221 48.4858 132.644 46.7144C132.166 46.255 131.049 46.2088 132.432 50.048C132.729 50.8678 133.914 54.4119 134.281 55.6847C135.132 58.2239 135.82 60.8146 136.342 63.4412" stroke="#2E3238" stroke-width="1.5" stroke-linecap="round" stroke-linejoin="round"/>
<path d="M136.767 67.5243C136.555 70.5245 131.922 65.8847 129.737 64.1302C127.77 62.5511 124.952 61.5478 128.918 67.2819C131.269 70.9401 133.047 74.936 134.191 79.1311" stroke="#2E3238" stroke-width="1.5" stroke-linecap="round" stroke-linejoin="round"/>
<path d="M251.312 209.768L244.162 199.222" stroke="#2E3238" stroke-width="1.5" stroke-linecap="round" stroke-linejoin="round"/>
<path d="M164.625 111.75C164.625 111.75 164.29 115.949 163.957 122.1C163.288 123.049 162.632 124.006 161.987 124.971" stroke="#2E3238" stroke-width="1.5" stroke-linecap="round" stroke-linejoin="round"/>
<path d="M168.707 112.01L164.386 114.942" stroke="#2E3238" stroke-width="1.5" stroke-linecap="round" stroke-linejoin="round"/>
<path d="M214.404 214.011L190.192 187.314" stroke="#2E3238" stroke-width="1.5" stroke-linecap="round" stroke-linejoin="round"/>
<path d="M169.918 147.555L161.707 166.585" stroke="#2E3238" stroke-width="1.5" stroke-linecap="round" stroke-linejoin="round"/>
<path d="M232.343 198.192C222.935 183.072 209.274 171.065 193.071 163.677" stroke="#2E3238" stroke-width="1.5" stroke-linecap="round" stroke-linejoin="round"/>
<path d="M187.924 220L176.161 177.313" stroke="#2E3238" stroke-width="1.5" stroke-linecap="round" stroke-linejoin="round"/>
<path d="M222.342 218.464L223.07 222.252L186.949 228.919L185.404 220.464L212.889 215.405" stroke="#2E3238" stroke-width="1.5" stroke-linecap="round" stroke-linejoin="round"/>
<path d="M191.859 155.647C195.105 155.733 198.257 154.548 200.643 152.346C203.029 150.143 204.462 147.096 204.635 143.854C204.809 140.611 203.71 137.429 201.572 134.984C199.435 132.539 196.428 131.025 193.191 130.765C193.51 128.321 192.955 125.844 191.624 123.77C190.294 121.696 188.273 120.159 185.919 119.43C186.9 116.587 183.866 98.7146 178.403 90.7364C173.277 83.2495 165.784 85.0024 161.677 90.1878C157.57 95.3731 158.613 102.219 158.586 102.788" stroke="#2E3238" stroke-width="1.5" stroke-linecap="round" stroke-linejoin="round"/>
<path d="M249.16 206.616L269.798 175.222C273.736 168.888 273.585 166.888 275.342 162.526C283.585 158.041 302.282 152.767 311.525 151.555C304.737 162.162 288.828 168.434 282.555 181.586L263.919 224.373C262.818 226.908 261.119 229.138 258.968 230.872C256.817 232.606 254.277 233.794 251.567 234.333C248.857 234.871 246.057 234.746 243.405 233.966C240.754 233.187 238.331 231.778 236.343 229.859L223.494 217.465" stroke="#2E3238" stroke-width="1.5" stroke-linecap="round" stroke-linejoin="round"/>
<path d="M218.556 221.798L212.889 215.374L243.404 188.465L249.07 194.888L218.556 221.798Z" stroke="#2E3238" stroke-width="1.5" stroke-linecap="round" stroke-linejoin="round"/>
<path d="M82.6425 142.403C85.9457 142.07 80.4541 136.832 79.5514 135.226C78.3312 133.049 77.0376 130.527 82.7334 134.529C87.3478 137.441 92.1341 140.072 97.0661 142.406" stroke="#2E3238" stroke-width="1.5" stroke-linecap="round" stroke-linejoin="round"/>
<path d="M192.768 227.828L195.281 236.859C196.921 242.662 200.759 247.597 205.979 250.616C211.191 253.646 258.797 276.495 258.797 276.495C271.495 283.672 276.676 299.949 286.798 307.465C286.222 298.161 282.222 279.131 278.312 270.62C274.141 268.595 272.111 268.587 266.313 264.44L220.827 232.47L218.222 223.136" stroke="#2E3238" stroke-width="1.5" stroke-linecap="round" stroke-linejoin="round"/>
<path d="M169.918 147.555C168.192 149.798 157.842 164.119 149.645 175.434C147.731 178.075 144.957 179.967 141.8 180.785C138.642 181.603 135.298 181.296 132.343 179.916L89.5552 158.01L98.2208 140.041L136.341 157.071" stroke="#2E3238" stroke-width="1.5" stroke-linecap="round" stroke-linejoin="round"/>
<path d="M186.434 151.252C189.272 154.033 192.555 156.319 196.146 158.017C192.127 167.268 185.249 173.257 176.1 177.374C165.642 172.995 162.779 168.312 159.003 162.529" stroke="#2E3238" stroke-width="1.5" stroke-linecap="round" stroke-linejoin="round"/>
<path d="M241.647 189.981C222.873 164.818 202.981 160.835 196.146 158.017" stroke="#2E3238" stroke-width="1.5" stroke-linecap="round" stroke-linejoin="round"/>
<path d="M161.98 124.979C161.98 124.979 166.707 144.888 186.434 151.252C183.392 148.252 180.882 144.758 179.009 140.918C173.176 129.139 172.706 114.645 174.282 102.01H175.07C179.855 101.737 179.765 96.6426 176.797 97.8628C172.371 99.6763 168.707 92.3776 168.919 87.7728C167.565 88.0883 166.3 88.7098 165.222 89.5895C162.981 91.5517 161.224 94.005 160.087 96.7581C158.95 99.5112 158.465 102.49 158.668 105.461C159.233 109.313 161.885 112.392 168.707 112.015" stroke="#2E3238" stroke-width="1.5" stroke-linecap="round" stroke-linejoin="round"/>
<path d="M161.98 124.979C159.131 129.286 136.919 155.616 133.949 160.435" stroke="#2E3238" stroke-width="1.5" stroke-linecap="round" stroke-linejoin="round"/>
<path d="M71.3423 145.858C69.8876 146.04 66.889 146.648 66.0086 146.828C62.0099 147.651 62.5251 148.707 63.1615 148.767C65.7358 149.011 69.9179 148.981 72.312 149.282C76.1607 149.769 83.5855 150.464 86.4948 152.192" stroke="#2E3238" stroke-width="1.5" stroke-linecap="round" stroke-linejoin="round"/>
<path d="M72.0995 149.252C71.4615 149.495 70.8873 149.707 70.6146 149.828C66.7961 151.283 67.4948 152.26 68.1296 152.22C70.7071 152.069 74.8286 151.313 77.2514 151.22C80.1651 151.166 83.0775 151.389 85.9489 151.887" stroke="#2E3238" stroke-width="1.5" stroke-linecap="round" stroke-linejoin="round"/>
<path d="M182.797 62.1923C182.751 62.972 182.473 63.7202 182.001 64.3418C181.528 64.9635 180.881 65.4306 180.142 65.6837C179.59 65.8734 179.003 65.9384 178.423 65.8739C177.843 65.8094 177.284 65.6171 176.787 65.3109C176.29 65.0046 175.868 64.592 175.549 64.1027C175.231 63.6134 175.026 63.0597 174.947 62.4814C174.869 61.903 174.919 61.3145 175.095 60.7581C175.272 60.2018 175.569 59.6914 175.966 59.2638C176.364 58.8362 176.851 58.5019 177.393 58.2852C177.934 58.0684 178.518 57.9745 179.1 58.0102C180.143 58.0787 181.117 58.5567 181.81 59.34C182.502 60.1233 182.857 61.1485 182.797 62.1923Z" stroke="#2E3238" stroke-width="1.5" stroke-linecap="round" stroke-linejoin="round"/>
<path d="M287.556 157.525C288.436 148.986 286.443 140.397 281.893 133.118C277.342 125.839 270.493 120.286 262.431 117.338C255.731 114.889 248.483 114.346 241.493 115.77C234.503 117.193 228.044 120.527 222.835 125.401C217.626 130.275 213.871 136.498 211.987 143.378C210.102 150.258 210.163 157.526 212.161 164.374" stroke="#2E3238" stroke-width="1.5" stroke-linecap="round" stroke-linejoin="round"/>
<path d="M246.554 192.038C250.891 192.346 255.247 191.904 259.434 190.735" stroke="#2E3238" stroke-width="1.5" stroke-linecap="round" stroke-linejoin="round"/>
<path d="M247.858 98.7672C245.587 98.4541 243.274 98.6482 241.087 99.3355C238.9 100.023 236.893 101.186 235.209 102.742C233.525 104.298 232.207 106.207 231.349 108.333C230.492 110.459 230.116 112.749 230.249 115.038C230.429 118.099 231.512 121.038 233.362 123.484C235.211 125.929 237.744 127.772 240.64 128.779C243.536 129.787 246.666 129.913 249.634 129.143C252.602 128.373 255.275 126.74 257.316 124.451C259.356 122.162 260.672 119.319 261.096 116.282C261.658 112.204 260.58 108.071 258.099 104.787C255.617 101.503 251.934 99.3385 247.858 98.7672Z" stroke="#2E3238" stroke-width="1.5" stroke-linecap="round" stroke-linejoin="round"/>
<path d="M133.284 52.525C129.419 42.6684 123.192 33.9123 115.15 27.0266C107.108 20.141 97.4975 15.3367 87.1633 13.0364C76.8291 10.736 66.088 11.01 55.8846 13.8342C45.6811 16.6585 36.3279 21.9465 28.6473 29.2332C20.9668 36.5199 15.1943 45.5821 11.8373 55.6229C8.4804 65.6637 7.64193 76.3756 9.39565 86.8164C11.1494 97.2573 15.4415 107.107 21.8947 115.5C28.3479 123.893 36.7645 130.572 46.4042 134.95C57.8906 140.074 70.605 141.799 83.0414 139.92" stroke="#2E3238" stroke-width="1.5" stroke-linecap="round" stroke-linejoin="round"/>
<path d="M136.011 90.7667C134.048 99.2567 130.382 107.26 125.235 114.292C120.089 121.324 113.569 127.238 106.07 131.677C100.888 134.736 95.2974 137.042 89.4658 138.526" stroke="#2E3238" stroke-width="1.5" stroke-linecap="round" stroke-linejoin="round"/>
<path d="M93.7662 29.7978C85.3904 26.0617 76.1557 24.6759 67.0522 25.7891C57.9488 26.9022 49.32 30.4723 42.0913 36.1165C34.8625 41.7607 29.3064 49.2661 26.0188 57.8278C22.7312 66.3896 21.8361 75.6847 23.4295 84.7165C25.0229 93.7483 29.0446 102.176 35.0635 109.096C41.0824 116.016 48.8713 121.167 57.595 123.997C66.3188 126.827 75.6483 127.228 84.5831 125.159C93.5179 123.09 101.721 118.628 108.313 112.251C133.697 87.8176 126.77 44.5006 93.7662 29.7978Z" stroke="#2E3238" stroke-width="1.5" stroke-linecap="round" stroke-linejoin="round"/>
<path d="M47.7661 181.95L61.2215 192.615L74.9481 171.555" stroke="#2E3238" stroke-width="1.5" stroke-linecap="round" stroke-linejoin="round"/>
<path d="M165.586 191.314L152.494 192.979" stroke="#2E3238" stroke-width="1.5" stroke-linecap="round" stroke-linejoin="round"/>
<path d="M159.858 198.707L158.191 185.586" stroke="#2E3238" stroke-width="1.5" stroke-linecap="round" stroke-linejoin="round"/>
<path d="M84.5247 98.252C84.4978 99.2081 84.188 100.135 83.6344 100.915C83.0808 101.695 82.3083 102.293 81.4147 102.634C80.521 102.975 79.5463 103.044 78.6138 102.831C77.6813 102.618 76.8329 102.133 76.1759 101.438C75.5188 100.743 75.0827 99.8683 74.9227 98.9253C74.7626 97.9822 74.8858 97.0129 75.2767 96.1399C75.6675 95.2669 76.3085 94.5294 77.1185 94.0207C77.9286 93.512 78.8713 93.2549 79.8274 93.282C81.1082 93.3216 82.3212 93.8666 83.2014 94.7979C84.0816 95.7292 84.5573 96.971 84.5247 98.252Z" stroke="#2E3238" stroke-width="1.5" stroke-linecap="round" stroke-linejoin="round"/>
<path d="M83.737 71.0398C85.0303 69.0758 85.8213 66.8242 86.0406 64.4829C86.2598 62.1416 85.9005 59.7823 84.9942 57.6124C84.0879 55.4425 82.6625 53.5285 80.8431 52.0386C79.0238 50.5487 76.8663 49.5285 74.5603 49.0678C72.2544 48.6072 69.8705 48.72 67.6184 49.3965C65.3662 50.073 63.3148 51.2924 61.6444 52.9476C59.9739 54.6027 58.7357 56.6428 58.0385 58.8887C57.3413 61.1345 57.2065 63.5172 57.646 65.8273C57.681 66.0729 57.7321 66.3154 57.7975 66.5546L64.7676 65.2531C64.4773 64.3026 64.3844 63.3028 64.4945 62.315C64.6046 61.3273 64.9154 60.3725 65.4079 59.5092C65.9004 58.646 66.5642 57.8925 67.3585 57.2951C68.1527 56.6977 69.0607 56.2689 70.0267 56.0352C70.9927 55.8014 71.9962 55.7676 72.9758 55.9357C73.9553 56.1039 74.8901 56.4705 75.7228 57.013C76.5555 57.5556 77.2685 58.2626 77.8181 59.0907C78.3676 59.9188 78.7421 60.8506 78.9185 61.8286C79.5565 65.3073 77.6664 67.9774 75.3122 70.9201C73.7666 72.7629 72.9195 75.0912 72.9197 77.4963C72.8846 78.7883 72.942 80.0818 73.0887 81.3674C73.2658 83.0581 74.2228 88.1621 74.2228 88.1621L81.4003 86.7984C81.3094 86.7984 80.4305 81.1026 80.3699 80.4662C80.2033 79.3105 80.2033 78.1368 80.3699 76.9811C80.8277 74.6764 82.4945 72.9187 83.737 71.0398Z" stroke="#2E3238" stroke-width="1.5" stroke-linecap="round" stroke-linejoin="round"/>
<path d="M91.0389 154.919C86.7957 152.117 82.302 149.715 77.6154 147.742C73.8529 146.366 69.9469 145.421 65.9719 144.923C60.123 144.206 59.4547 142.631 65.8204 141.772C68.1627 141.488 70.5235 141.387 72.8814 141.469C77.3522 141.526 81.8039 142.075 86.155 143.105" stroke="#2E3238" stroke-width="1.5" stroke-linecap="round" stroke-linejoin="round"/>
</g>
<defs>
<clipPath id="clip0_715_11558">
<rect width="319" height="319" fill="white" transform="translate(0.5)"/>
</clipPath>
</defs>
</svg>
