<svg width="24" height="24" viewBox="0 0 24 24" fill="none" xmlns="http://www.w3.org/2000/svg">
<path fill-rule="evenodd" clip-rule="evenodd" d="M15.7169 18.6972C15.3319 19.0931 14.6988 19.102 14.3028 18.7169L8.42388 13.0001C8.29164 12.8715 8.18466 12.7169 8.11146 12.5452C8.03813 12.3733 8 12.1879 8 12C8 11.8121 8.03813 11.6267 8.11146 11.4548C8.18466 11.2831 8.29113 11.129 8.42337 11.0004L14.3028 5.28308C14.6988 4.89805 15.3319 4.9069 15.7169 5.30285C16.102 5.69879 16.0931 6.3319 15.6972 6.71692L10.2643 12L15.6972 17.2831C16.0931 17.6681 16.1019 18.3012 15.7169 18.6972Z" fill="#F72717"/>
</svg>
