<!DOCTYPE svg PUBLIC "-//W3C//DTD SVG 1.1//EN" "http://www.w3.org/Graphics/SVG/1.1/DTD/svg11.dtd">
<!-- Uploaded to: SVG Repo, www.svgrepo.com, Transformed by: SVG Repo Mixer Tools -->
<svg width="64px" height="64px" viewBox="0 0 48 48" xmlns="http://www.w3.org/2000/svg" fill="#000000">
<g id="SVGRepo_bgCarrier" stroke-width="0"/>
<g id="SVGRepo_tracerCarrier" stroke-linecap="round" stroke-linejoin="round"/>
<g id="SVGRepo_iconCarrier"> <title>copy-file</title> <g id="Layer_2" data-name="Layer 2"> <g id="invisible_box" data-name="invisible box"> <rect width="48" height="48" fill="none"/> </g> <g id="icons_Q2" data-name="icons Q2"> <g> <path d="M18,30H14a2,2,0,0,1,0-4h4a2,2,0,0,1,0,4Z"/> <path d="M26,22H14a2,2,0,0,1,0-4H26a2,2,0,0,1,0,4Z"/> <path d="M26,14H14a2,2,0,0,1,0-4H26a2,2,0,0,1,0,4Z"/> <path d="M42,8H36V4a2,2,0,0,0-2-2H6A2,2,0,0,0,4,4V36a2,2,0,0,0,2,2h4v6a2,2,0,0,0,2,2H42a2,2,0,0,0,2-2V10A2,2,0,0,0,42,8ZM8,6H32V34H8ZM40,42H14V38H34a2,2,0,0,0,2-2V12h4Z"/> </g> </g> </g> </g>
</svg>