<svg width="33" height="32" viewBox="0 0 33 32" fill="none" xmlns="http://www.w3.org/2000/svg">
<path fill-rule="evenodd" clip-rule="evenodd" d="M20.5 22.6667C20.5 21.9303 21.0969 21.3333 21.8333 21.3333H25.8333C26.5697 21.3333 27.1666 21.9303 27.1666 22.6667C27.1666 23.403 26.5697 24 25.8333 24H21.8333C21.0969 24 20.5 23.403 20.5 22.6667Z" fill="#2E3238"/>
<path fill-rule="evenodd" clip-rule="evenodd" d="M12.5 16C12.5 15.2636 13.0969 14.6667 13.8333 14.6667L25.8333 14.6667C26.5697 14.6667 27.1666 15.2636 27.1666 16C27.1666 16.7364 26.5697 17.3333 25.8333 17.3333L13.8333 17.3333C13.0969 17.3333 12.5 16.7364 12.5 16Z" fill="#2E3238"/>
<path fill-rule="evenodd" clip-rule="evenodd" d="M5.83331 9.33333C5.83331 8.59695 6.43027 8 7.16665 8H25.8333C26.5697 8 27.1666 8.59695 27.1666 9.33333C27.1666 10.0697 26.5697 10.6667 25.8333 10.6667H7.16665C6.43027 10.6667 5.83331 10.0697 5.83331 9.33333Z" fill="#2E3238"/>
</svg>
