<svg width="32" height="32" viewBox="0 0 32 32" fill="none" xmlns="http://www.w3.org/2000/svg">
<path d="M15.9997 23.9985C18.141 23.9651 20.1833 23.0912 21.6859 21.5654C22.4339 20.8176 23.024 19.9272 23.4214 18.947C23.8187 17.9668 24.0152 16.9168 23.9991 15.8593C24 14.8264 23.7971 13.8034 23.402 12.8491C23.0069 11.8947 22.4274 11.0277 21.6967 10.2976C20.966 9.56756 20.0985 8.98882 19.1438 8.59456C18.189 8.2003 17.1659 7.99826 16.133 8.00001L15.9997 8.00001C13.8598 8.01938 11.8152 8.88758 10.3152 10.4138C8.81514 11.94 7.98252 13.9994 8.00028 16.1392C7.9983 17.1837 8.20491 18.2181 8.60797 19.1817C9.01103 20.1453 9.60244 21.0187 10.3475 21.7507C11.0926 22.4828 11.9763 23.0586 12.9469 23.4446C13.9175 23.8306 14.9554 24.0189 15.9997 23.9985ZM16.9996 12.9729C17.0051 13.1069 16.9831 13.2406 16.9352 13.3659C16.8872 13.4911 16.8142 13.6053 16.7206 13.7013C16.627 13.7974 16.5148 13.8734 16.3908 13.9247C16.2669 13.9759 16.1338 14.0014 15.9997 13.9994C15.7371 13.9979 15.4853 13.8952 15.2965 13.7127C15.1078 13.5302 14.9967 13.2819 14.9864 13.0195C14.981 12.8875 15.0024 12.7558 15.0492 12.6322C15.096 12.5087 15.1674 12.3959 15.2589 12.3006C15.3504 12.2054 15.4603 12.1296 15.5819 12.0779C15.7035 12.0261 15.8342 11.9995 15.9664 11.9996C16.2313 11.9959 16.4872 12.0954 16.6801 12.277C16.8729 12.4587 16.9875 12.7082 16.9996 12.9729ZM16.6663 15.6393V19.6389C16.6663 19.8157 16.5961 19.9853 16.4711 20.1103C16.346 20.2353 16.1765 20.3055 15.9997 20.3055C15.8229 20.3055 15.6533 20.2353 15.5283 20.1103C15.4033 19.9853 15.3331 19.8157 15.3331 19.6389L15.3331 15.6393C15.3331 15.4625 15.4033 15.2929 15.5283 15.1679C15.6533 15.0429 15.8229 14.9727 15.9997 14.9727C16.1765 14.9727 16.346 15.0429 16.4711 15.1679C16.5961 15.2929 16.6663 15.4625 16.6663 15.6393Z" fill="#6C6C70"/>
</svg>
