<svg width="24" height="24" viewBox="0 0 24 24" fill="none" xmlns="http://www.w3.org/2000/svg">
<path d="M14.2854 12.2771C14.2809 11.0147 13.2539 9.99499 11.9915 9.99947C10.7292 10.0039 9.70944 11.0309 9.71392 12.2933C9.7184 13.5557 10.7454 14.5754 12.0078 14.5709C13.2701 14.5664 14.2899 13.5395 14.2854 12.2771Z" fill="#2E3238"/>
<path d="M14.3057 17.9916C14.3012 16.7293 13.2742 15.7095 12.0118 15.714C10.7494 15.7185 9.72972 16.7455 9.7342 18.0079C9.73868 19.2702 10.7657 20.2899 12.028 20.2855C13.2904 20.281 14.3101 19.254 14.3057 17.9916Z" fill="#2E3238"/>
<path d="M14.2651 6.56358C14.2606 5.30121 13.2336 4.28148 11.9713 4.28596C10.7089 4.29044 9.68916 5.31743 9.69364 6.5798C9.69812 7.84217 10.7251 8.86189 11.9875 8.85741C13.2499 8.85293 14.2696 7.82595 14.2651 6.56358Z" fill="#2E3238"/>
</svg>
