<svg width="32" height="33" viewBox="0 0 32 33" fill="none" xmlns="http://www.w3.org/2000/svg">
<path fill-rule="evenodd" clip-rule="evenodd" d="M7.95406 14.3853C7.95406 16.0825 8.62826 17.7101 9.82834 18.9102C11.0284 20.1103 12.6561 20.7845 14.3533 20.7845C16.0504 20.7845 17.6781 20.1103 18.8782 18.9102C20.0782 17.7101 20.7524 16.0825 20.7524 14.3853C20.7524 12.6881 20.0782 11.0605 18.8782 9.8604C17.6781 8.66032 16.0504 7.98612 14.3533 7.98612C12.6561 7.98612 11.0284 8.66032 9.82834 9.8604C8.62826 11.0605 7.95406 12.6881 7.95406 14.3853ZM8.91802 19.8205C7.47651 18.379 6.66667 16.4239 6.66667 14.3853C6.66667 12.3467 7.47651 10.3916 8.91802 8.95008C10.3595 7.50856 12.3146 6.69873 14.3533 6.69873C16.3919 6.69873 18.347 7.50856 19.7885 8.95008C21.23 10.3916 22.0398 12.3467 22.0398 14.3853C22.0398 16.4239 21.23 18.379 19.7885 19.8205C18.347 21.2621 16.3919 22.0719 14.3533 22.0719C12.3146 22.0719 10.3595 21.2621 8.91802 19.8205Z" fill="#2E3238"/>
<path fill-rule="evenodd" clip-rule="evenodd" d="M19.3318 19.3648C19.5832 19.1134 19.9907 19.1134 20.2421 19.3648L25.1445 24.2669C25.3959 24.5183 25.3959 24.9259 25.1445 25.1773C24.8932 25.4286 24.4856 25.4287 24.2342 25.1773L19.3318 20.2752C19.0804 20.0238 19.0804 19.6162 19.3318 19.3648Z" fill="#2E3238"/>
</svg>
