<svg width="40" height="64" viewBox="0 0 40 64" fill="none" xmlns="http://www.w3.org/2000/svg">
<path fill-rule="evenodd" clip-rule="evenodd" d="M34.7509 43.8534L21.7507 18.1387C21.5778 17.8035 21.3242 17.5239 21.0163 17.3293C20.7084 17.1346 20.3575 17.032 20 17.032C19.6424 17.032 19.2915 17.1346 18.9836 17.3293C18.6757 17.5239 18.4221 17.8035 18.2493 18.1387L5.24913 43.8534C5.08102 44.1797 4.99522 44.5472 5.00021 44.9198C5.00519 45.2924 5.10078 45.6573 5.27755 45.9781C5.45432 46.2991 5.70614 46.5651 6.00818 46.75C6.31021 46.9347 6.652 47.032 6.99982 47.032H33.0002C33.3479 47.032 33.6898 46.9347 33.9918 46.75C34.2938 46.5651 34.5457 46.2991 34.7225 45.9781C34.8991 45.6573 34.9947 45.2924 34.9998 44.9198C35.0047 44.5472 34.9189 44.1797 34.7509 43.8534ZM33.3333 44.8971C33.3346 44.7936 33.3103 44.6963 33.2691 44.6163L33.2634 44.6053L20.2674 18.8988C20.2257 18.8196 20.1728 18.7679 20.1257 18.738C20.079 18.7085 20.036 18.6986 20 18.6986C19.9639 18.6986 19.9209 18.7085 19.8743 18.738C19.8271 18.7679 19.7743 18.8195 19.7328 18.8985L6.73076 44.6167C6.68969 44.6964 6.66533 44.7937 6.66672 44.8975C6.66811 45.0014 6.69504 45.0971 6.73735 45.1739C6.77935 45.2502 6.83151 45.2997 6.87776 45.3281C6.92331 45.356 6.96504 45.3653 6.99982 45.3653H33.0002C33.0348 45.3653 33.0764 45.356 33.1217 45.3285C33.1681 45.3 33.2203 45.2507 33.2625 45.1742M33.3333 44.8971C33.3319 45.0012 33.3048 45.0973 33.2625 45.1742L33.3333 44.8971Z" fill="#FF832B"/>
<path fill-rule="evenodd" clip-rule="evenodd" d="M20 25.8407C20.4602 25.8407 20.8333 26.2138 20.8333 26.674V36.317C20.8333 36.7773 20.4602 37.1504 20 37.1504C19.5398 37.1504 19.1667 36.7773 19.1667 36.317V26.674C19.1667 26.2138 19.5398 25.8407 20 25.8407Z" fill="#FF832B"/>
<path fill-rule="evenodd" clip-rule="evenodd" d="M20.0003 41.4363C20.1844 41.4363 20.3337 41.2871 20.3337 41.1029C20.3337 40.9188 20.1844 40.7696 20.0003 40.7696V39.7696C19.264 39.7696 18.667 40.3666 18.667 41.1029C18.667 41.8393 19.264 42.4363 20.0003 42.4363V41.4363Z" fill="#FF832B"/>
<path fill-rule="evenodd" clip-rule="evenodd" d="M20.0003 39.7696C20.7367 39.7696 21.3333 40.3666 21.3333 41.1029C21.3333 41.8393 20.7367 42.4363 20.0003 42.4363V41.4363C19.8162 41.4363 19.6667 41.2871 19.6667 41.1029C19.6667 40.9188 19.8162 40.7696 20.0003 40.7696V39.7696Z" fill="#FF832B"/>
</svg>
